<svg xmlns="http://www.w3.org/2000/svg" viewBox="0 0 512 512">
  <defs>
    <linearGradient id="bg" x1="0%" y1="0%" x2="100%" y2="100%">
      <stop offset="0%" style="stop-color:#6366f1"/>
      <stop offset="100%" style="stop-color:#8b5cf6"/>
    </linearGradient>
  </defs>
  <circle cx="256" cy="256" r="240" fill="url(#bg)"/>
  <path d="M140 180 C100 180 80 220 80 280 C80 340 110 380 150 380 C180 380 200 360 210 340 L250 340 C260 360 280 380 310 380 C350 380 380 340 380 280 C380 220 360 180 320 180 C290 180 270 200 260 220 L220 220 C210 200 190 180 140 180Z" fill="white" opacity="0.95"/>
  <path d="M340 150 L300 210 L325 210 L285 290 L365 200 L335 200 L365 150Z" fill="#22d3ee"/>
  <circle cx="256" cy="420" r="30" fill="white" opacity="0.9"/>
  <circle cx="256" cy="420" r="15" fill="#6366f1"/>
</svg>
